<?xml version="1.0" encoding="utf-8"?>
<!-- Generator: Adobe Illustrator 19.0.0, SVG Export Plug-In . SVG Version: 6.00 Build 0)  -->
<svg version="1.1" id="Calque_1" xmlns="http://www.w3.org/2000/svg" xmlns:xlink="http://www.w3.org/1999/xlink" x="0px" y="0px"
	 viewBox="-1373.5 741.5 69 69" style="enable-background:new -1373.5 741.5 69 69;" xml:space="preserve">
<g>
	<path d="M-1305.4,742.4c-1.2-1.2-3.1-1.2-4.2,0l-29.4,29.4l-29.4-29.4c-1.2-1.2-3.1-1.2-4.2,0c-1.2,1.2-1.2,3.1,0,4.2l29.4,29.4
		l-29.4,29.4c-1.2,1.2-1.2,3.1,0,4.2c0.6,0.6,1.4,0.9,2.1,0.9s1.5-0.3,2.1-0.9l29.4-29.4l29.4,29.4c0.6,0.6,1.4,0.9,2.1,0.9
		s1.5-0.3,2.1-0.9c1.2-1.2,1.2-3.1,0-4.2l-29.4-29.4l29.4-29.4C-1304.2,745.4-1304.2,743.6-1305.4,742.4z"/>
</g>
</svg>
